# ASF file generated by Tido's ASF writer for MATLAB.
:version 1.10
:name VICON
:units
  mass 1
  length 0.45000000000000001
  angle deg
:documentation
   .ast/.asf automatically generated from VICON data using
   VICON BodyBuilder and BodyLanguage model FoxedUp or BRILLIANT.MOD
:root
  axis xyz
  order tx ty tz rx ry rz 
  position 0 0 0
  orientation 0 0 0
:bonedata
  begin
    id 1
    name lhipjoint
    direction 0.44017800000000001 -0.82263900000000001 0.359871
    length 1.1390085000000001
    axis 0 0 0 xyz
  end
  begin
    id 2
    name lfemur
    direction 0.34201999999999999 -0.939693 0
    length 3.5465939999999998
    axis 0 0 20 xyz
    dof rx ry rz 
    limits (-160 20)
           (-70 70)
           (-60 70)
  end
  begin
    id 3
    name ltibia
    direction 0.34201999999999999 -0.939693 0
    length 3.7970234999999999
    axis 0 0 20 xyz
    dof rx 
    limits (-10 170)
  end
  begin
    id 4
    name lfoot
    direction 0.088635099999999994 -0.24352299999999999 0.96583699999999995
    length 1.1853629999999999
    axis -90 7.62852e-016 20 xyz
    dof rx rz 
    limits (-45 90)
           (-70 20)
  end
  begin
    id 5
    name ltoes
    direction 1.53703e-011 -4.2171700000000001e-011 1
    length 0.59142150000000004
    axis -90 7.62852e-016 20 xyz
    dof rx 
    limits (-90 20)
  end
  begin
    id 6
    name rhipjoint
    direction -0.399779 -0.83977299999999999 0.367367
    length 1.115766
    axis 0 0 0 xyz
  end
  begin
    id 7
    name rfemur
    direction -0.34201999999999999 -0.939693 0
    length 3.4866269999999999
    axis 0 0 -20 xyz
    dof rx ry rz 
    limits (-160 20)
           (-70 70)
           (-70 60)
  end
  begin
    id 8
    name rtibia
    direction -0.34201999999999999 -0.939693 0
    length 3.9349440000000002
    axis 0 0 -20 xyz
    dof rx 
    limits (-10 170)
  end
  begin
    id 9
    name rfoot
    direction -0.108514 -0.29813899999999999 0.94833400000000001
    length 1.1974590000000001
    axis -90 -7.62852e-016 -20 xyz
    dof rx rz 
    limits (-45 90)
           (-20 70)
  end
  begin
    id 10
    name rtoes
    direction -1.5339199999999999e-011 -4.2207699999999999e-011 1
    length 0.59392350000000005
    axis -90 -7.62852e-016 -20 xyz
    dof rx 
    limits (-90 20)
  end
  begin
    id 11
    name lowerback
    direction 0.011325699999999999 0.99986600000000003 0.0118602
    length 1.164123
    axis 0 0 0 xyz
    dof rx ry rz 
    limits (-20 45)
           (-30 30)
           (-30 30)
  end
  begin
    id 12
    name upperback
    direction -0.016474699999999998 0.99519299999999999 -0.096537499999999998
    length 1.135656
    axis 0 0 0 xyz
    dof rx ry rz 
    limits (-20 45)
           (-30 30)
           (-30 30)
  end
  begin
    id 13
    name thorax
    direction -0.019430099999999999 0.99433000000000005 -0.10455200000000001
    length 1.1524455
    axis 0 0 0 xyz
    dof rx ry rz 
    limits (-20 45)
           (-30 30)
           (-30 30)
  end
  begin
    id 14
    name lowerneck
    direction 0.014854300000000001 0.995587 -0.092657000000000003
    length 0.772119
    axis 0 0 0 xyz
    dof rx ry rz 
    limits (-20 45)
           (-30 30)
           (-30 30)
  end
  begin
    id 15
    name upperneck
    direction -0.0135467 0.99365599999999998 -0.111639
    length 0.76021650000000007
    axis 0 0 0 xyz
    dof rx ry rz 
    limits (-20 45)
           (-30 30)
           (-30 30)
  end
  begin
    id 16
    name head
    direction -0.0061534900000000002 0.99954699999999996 -0.029447999999999998
    length 0.78578999999999999
    axis 0 0 0 xyz
    dof rx ry rz 
    limits (-20 45)
           (-30 30)
           (-30 30)
  end
  begin
    id 17
    name lclavicle
    direction 0.98826700000000001 0.14988499999999999 0.029371299999999999
    length 2.012499
    axis 0 0 0 xyz
    dof ry rz 
    limits (-20 10)
           (0 20)
  end
  begin
    id 18
    name lhumerus
    direction 1 -4.4898600000000001e-011 -1.1483300000000001e-027
    length 2.4171659999999999
    axis 180 -30 -90 xyz
    dof rx ry rz 
    limits (-60 90)
           (-90 90)
           (-90 90)
  end
  begin
    id 19
    name lradius
    direction 0.99999800000000005 0.00170963 -0.00098705499999999992
    length 1.773954
    axis 180 -30 -90 xyz
    dof rx 
    limits (-10 170)
  end
  begin
    id 20
    name lwrist
    direction 0.99999800000000005 7.53149e-005 -0.00194706
    length 0.88697700000000002
    axis 4.6505600000000004e-015 90 90 xyz
    dof ry 
    limits (-180 0)
  end
  begin
    id 21
    name lhand
    direction 1 -4.48973e-011 -1.3174599999999999e-026
    length 0.5306265
    axis 8.4064999999999996e-015 90 90 xyz
    dof rx rz 
    limits (-90 90)
           (-45 45)
  end
  begin
    id 22
    name lfingers
    direction 1 -4.49107e-011 -2.6349199999999999e-026
    length 0.42780555000000003
    axis 1.6812999999999999e-014 90 90 xyz
    dof rx 
    limits (0 90)
  end
  begin
    id 23
    name lthumb
    direction 0.70710700000000004 -6.3504800000000005e-011 0.70710700000000004
    length 0.6142455
    axis -90 45 2.8529899999999998e-015 xyz
    dof rx rz 
    limits (-45 45)
           (-45 45)
  end
  begin
    id 24
    name rclavicle
    direction -0.996699 0.064289499999999999 -0.049572499999999999
    length 2.0817494999999999
    axis 0 0 0 xyz
    dof ry rz 
    limits (-10 20)
           (-20 0)
  end
  begin
    id 25
    name rhumerus
    direction -1 -4.4891899999999998e-011 -2.4105900000000001e-027
    length 2.474145
    axis 180 30 90 xyz
    dof rx ry rz 
    limits (-90 60)
           (-90 90)
           (-90 90)
  end
  begin
    id 26
    name rradius
    direction -0.99999899999999997 0.0011810099999999999 -0.00068185800000000003
    length 1.5677145000000001
    axis 180 30 90 xyz
    dof rx 
    limits (-10 170)
  end
  begin
    id 27
    name rwrist
    direction -0.99999899999999997 0.000321823 -0.00132288
    length 0.78385499999999997
    axis 4.6505600000000004e-015 -90 -90 xyz
    dof ry 
    limits (-180 0)
  end
  begin
    id 28
    name rhand
    direction -1 -4.4902199999999998e-011 -1.3174599999999999e-026
    length 0.60719400000000001
    axis 8.4064999999999996e-015 -90 -90 xyz
    dof rx rz 
    limits (-90 90)
           (-45 45)
  end
  begin
    id 29
    name rfingers
    direction -1 -4.4917800000000002e-011 -2.6349199999999999e-026
    length 0.48953249999999998
    axis 1.6812999999999999e-014 -90 -90 xyz
    dof rx 
    limits (0 90)
  end
  begin
    id 30
    name rthumb
    direction -0.70710700000000004 -6.3471300000000002e-011 0.70710700000000004
    length 0.70287750000000004
    axis -90 -45 -2.8529899999999998e-015 xyz
    dof rx rz 
    limits (-45 45)
           (-45 45)
  end
:hierarchy
begin
  root lhipjoint rhipjoint lowerback 
  lhipjoint lfemur 
  lfemur ltibia 
  ltibia lfoot 
  lfoot ltoes 
  rhipjoint rfemur 
  rfemur rtibia 
  rtibia rfoot 
  rfoot rtoes 
  lowerback upperback 
  upperback thorax 
  thorax lowerneck lclavicle rclavicle 
  lowerneck upperneck 
  upperneck head 
  lclavicle lhumerus 
  lhumerus lradius 
  lradius lwrist 
  lwrist lhand lthumb 
  lhand lfingers 
  rclavicle rhumerus 
  rhumerus rradius 
  rradius rwrist 
  rwrist rhand rthumb 
  rhand rfingers 
end

# AMC file generated by Tido's AMC writer for MATLAB on 27-Nov-2005 at 18:24:20
# Corresponding ASF file: S:\data_MoCap\MoCaDaDB\HDM\Bonn_ASF_AMC_Use IK_on\björn\bjorn.asf
# Number of frames: 542
# Sampling rate: 120
:fully-specified
:degrees
441
root 12.903885000000001 8.5095899999999993 -3.9966615000000001 -5.2943300000000004 19.3794 358.536 
lfemur -12.9162 8.4802999999999997 -11.2376 
ltibia 67.214399999999998 
lfoot -4.2906700000000004 -3.6568200000000002 
ltoes -22.227 
rfemur -14.0623 -12.8567 24.182500000000001 
rtibia 39.743499999999997 
rfoot -15.6518 13.442500000000001 
rtoes -1.1641600000000001 
lowerback -1.8004100000000001 1.5728800000000001 7.0708099999999998 
upperback 10.5609 1.5399400000000001 0.91948799999999997 
thorax 12.658300000000001 1.43499 -2.7305899999999999 
lowerneck 1.2206699999999999 -4.3762999999999996 1.93099 
upperneck 18.055099999999999 -6.2442599999999997 2.4940099999999998 
head 5.2621599999999997 -2.7072699999999998 0.205598 
lclavicle 1.74931e-014 -8.3489599999999999e-015 
lhumerus -29.173999999999999 24.815799999999999 79.796400000000006 
lradius 12.139900000000001 
lwrist -55.183700000000002 
lhand -9.5829900000000006 -5.3301499999999997 
lfingers 7.1250200000000001 
lthumb 16.385200000000001 23.997800000000002 
rclavicle 1.74931e-014 -8.3489599999999999e-015 
rhumerus -22.586600000000001 -13.3483 -89.825800000000001 
rradius 43.103000000000002 
rwrist 1.56623 
rhand -12.1089 13.7568 
rfingers 7.1250200000000001 
rthumb 13.9521 -15.755000000000001 
442
root 12.924495 8.5080150000000003 -3.9438090000000003 -5.3402399999999997 19.089300000000001 358.51600000000002 
lfemur -13.7369 8.6277899999999992 -11.4651 
ltibia 66.433099999999996 
lfoot -5.5722800000000001 -3.48482 
ltoes -22.004100000000001 
rfemur -13.548400000000001 -12.860799999999999 24.087 
rtibia 39.732700000000001 
rfoot -15.9297 13.799799999999999 
rtoes -0.89083599999999996 
lowerback -1.7761199999999999 1.6374599999999999 7.1037600000000003 
upperback 10.573600000000001 1.6265499999999999 0.91293299999999999 
thorax 12.6707 1.48089 -2.7446700000000002 
lowerneck 1.22278 -4.3898400000000004 1.97 
upperneck 18.085799999999999 -6.2584600000000004 2.4488099999999999 
head 5.2688899999999999 -2.7137899999999999 0.18436900000000001 
lclavicle 2.7034699999999999e-014 -2.3456599999999999e-014 
lhumerus -29.9175 25.016300000000001 79.486000000000004 
lradius 12.0185 
lwrist -55.434600000000003 
lhand -9.08432 -5.09884 
lfingers 7.1250200000000001 
lthumb 16.865300000000001 24.188800000000001 
rclavicle 2.7034699999999999e-014 -2.3456599999999999e-014 
rhumerus -22.590399999999999 -12.8499 -89.9833 
rradius 44.758099999999999 
rwrist 0.72931199999999996 
rhand -12.238200000000001 13.632 
rfingers 7.1250200000000001 
rthumb 13.827400000000001 -15.888400000000001 
443
root 12.94515 8.505135000000001 -3.8924909999999997 -5.3640400000000001 18.838999999999999 358.49299999999999 
lfemur -14.535500000000001 8.7225699999999993 -11.697900000000001 
ltibia 65.505300000000005 
lfoot -6.7569900000000001 -3.2519999999999998 
ltoes -21.563500000000001 
rfemur -13.0807 -12.843400000000001 24.000699999999998 
rtibia 39.731000000000002 
rfoot -16.228200000000001 14.103199999999999 
rtoes -0.70061899999999999 
lowerback -1.77563 1.68428 7.1474599999999997 
upperback 10.584300000000001 1.6861999999999999 0.90544199999999997 
thorax 12.6934 1.51515 -2.76871 
lowerneck 1.2959400000000001 -4.3883999999999999 1.96574 
upperneck 18.038599999999999 -6.2529199999999996 2.45356 
head 5.2421800000000003 -2.7132299999999998 0.18917 
lclavicle 4.7708300000000003e-015 -5.56597e-015 
lhumerus -30.592500000000001 24.996300000000002 79.319599999999994 
lradius 11.950200000000001 
lwrist -55.415300000000002 
lhand -8.56067 -4.8997599999999997 
lfingers 7.1250200000000001 
lthumb 17.369299999999999 24.344200000000001 
rclavicle 4.7708300000000003e-015 -5.56597e-015 
rhumerus -22.652000000000001 -12.3437 -90.102500000000006 
rradius 46.452500000000001 
rwrist -0.17919099999999999 
rhand -12.273 13.510999999999999 
rfingers 7.1250200000000001 
rthumb 13.793900000000001 -16.011700000000001 
444
root 12.965714999999999 8.5030200000000011 -3.8412360000000003 -5.38924 18.5717 358.495 
lfemur -15.2875 8.8194300000000005 -11.970800000000001 
ltibia 64.458299999999994 
lfoot -7.9575699999999996 -2.9588899999999998 
ltoes -22.010999999999999 
rfemur -12.603999999999999 -12.882999999999999 23.876999999999999 
rtibia 39.733400000000003 
rfoot -16.5139 14.4537 
rtoes -0.60392699999999999 
lowerback -1.76065 1.73132 7.1457499999999996 
upperback 10.599 1.75047 0.90398199999999995 
thorax 12.709 1.5465599999999999 -2.7606700000000002 
lowerneck 1.28304 -4.3895200000000001 1.9615400000000001 
upperneck 18.095400000000001 -6.2514700000000003 2.4164699999999999 
head 5.2608899999999998 -2.7136300000000002 0.17743999999999999 
lclavicle 3.8166699999999998e-014 -2.1071200000000001e-014 
lhumerus -31.195799999999998 24.720300000000002 79.297700000000006 
lradius 11.9282 
lwrist -55.1419 
lhand -7.99946 -4.7522799999999998 
lfingers 7.1250200000000001 
lthumb 17.909400000000002 24.443100000000001 
rclavicle 3.8166699999999998e-014 -2.1071200000000001e-014 
rhumerus -22.641200000000001 -11.9634 -90.196600000000004 
rradius 48.000100000000003 
rwrist -0.83691300000000002 
rhand -12.269600000000001 13.3055 
rfingers 7.1250200000000001 
rthumb 13.7972 -16.216899999999999 
445
root 12.986280000000001 8.5013100000000001 -3.7903095000000002 -5.37521 18.320499999999999 358.51999999999998 
lfemur -16.061 8.9043399999999995 -12.278700000000001 
ltibia 63.319699999999997 
lfoot -9.0843299999999996 -2.5285600000000001 
ltoes -22.771000000000001 
rfemur -12.157999999999999 -12.884499999999999 23.730599999999999 
rtibia 39.740099999999998 
rfoot -16.772600000000001 14.786300000000001 
rtoes -0.44253500000000001 
lowerback -1.76206 1.79484 7.1841299999999997 
upperback 10.588200000000001 1.8394900000000001 0.83970999999999996 
thorax 12.712999999999999 1.5971 -2.8405900000000002 
lowerneck 1.3865400000000001 -4.4067600000000002 2.0633300000000001 
upperneck 18.0488 -6.2699699999999998 2.39825 
head 5.2257499999999997 -2.7195200000000002 0.15768699999999999 
lclavicle 1.66979e-014 -1.8685799999999999e-014 
lhumerus -31.720300000000002 24.0716 79.356200000000001 
lradius 11.9672 
lwrist -54.564999999999998 
lhand -7.3965699999999996 -4.6434100000000003 
lfingers 7.1250200000000001 
lthumb 18.4894 24.497900000000001 
rclavicle 1.66979e-014 -1.8685799999999999e-014 
rhumerus -22.7592 -11.574299999999999 -90.287400000000005 
rradius 49.624200000000002 
rwrist -1.44048 
rhand -12.259600000000001 13.0619 
rfingers 7.1250200000000001 
rthumb 13.806800000000001 -16.459900000000001 
446
root 13.007069999999999 8.4992850000000004 -3.7394955000000003 -5.3674099999999996 18.0564 358.59199999999998 
lfemur -16.753599999999999 8.9788399999999999 -12.6463 
ltibia 62.073700000000002 
lfoot -10.0259 -2.1249400000000001 
ltoes -23.236499999999999 
rfemur -11.6999 -12.876300000000001 23.523399999999999 
rtibia 39.750599999999999 
rfoot -17.034099999999999 15.122999999999999 
rtoes -0.34264099999999997 
lowerback -1.7650600000000001 1.84331 7.1377899999999999 
upperback 10.607200000000001 1.91123 0.80343100000000001 
thorax 12.744400000000001 1.63045 -2.84423 
lowerneck 1.42771 -4.4043299999999999 2.0472600000000001 
upperneck 18.035499999999999 -6.2647700000000004 2.4004500000000002 
head 5.2152500000000002 -2.7188699999999999 0.16239000000000001 
lclavicle 4.4130199999999999e-014 -2.22639e-014 
lhumerus -32.287999999999997 23.817699999999999 79.324700000000007 
lradius 12.017200000000001 
lwrist -54.428199999999997 
lhand -6.8507699999999998 -4.8065800000000003 
lfingers 7.1250200000000001 
lthumb 19.014299999999999 24.283999999999999 
rclavicle 4.4130199999999999e-014 -2.22639e-014 
rhumerus -22.665800000000001 -11.2805 -90.378200000000007 
rradius 51.000399999999999 
rwrist -1.6718200000000001 
rhand -12.321300000000001 12.9186 
rfingers 7.1250200000000001 
rthumb 13.747400000000001 -16.607299999999999 
447
root 13.02741 8.4965399999999995 -3.6889470000000006 -5.31609 17.825800000000001 358.66000000000003 
lfemur -17.447700000000001 8.9883600000000001 -13.0098 
ltibia 60.753799999999998 
lfoot -10.8893 -1.70234 
ltoes -23.709399999999999 
rfemur -11.291700000000001 -12.8749 23.3325 
rtibia 39.752200000000002 
rfoot -17.266500000000001 15.4521 
rtoes 0.010165199999999999 
lowerback -1.78851 1.8870499999999999 7.0807000000000002 
upperback 10.592000000000001 1.97607 0.77245900000000001 
thorax 12.7462 1.6571199999999999 -2.83751 
lowerneck 1.4705900000000001 -4.4037800000000002 2.0306500000000001 
upperneck 18.051300000000001 -6.26023 2.38557 
head 5.2129399999999997 -2.7187899999999998 0.16158600000000001 
lclavicle -3.5781199999999999e-015 -2.38542e-015 
lhumerus -32.954000000000001 23.939699999999998 79.126400000000004 
lradius 12.089700000000001 
lwrist -54.741599999999998 
lhand -6.3150000000000004 -5.0681099999999999 
lfingers 7.1250200000000001 
lthumb 19.529499999999999 23.971 
rclavicle -3.5781199999999999e-015 -2.38542e-015 
rhumerus -22.7013 -11.0449 -90.430499999999995 
rradius 52.363 
rwrist -1.7130399999999999 
rhand -12.4703 12.9063 
rfingers 7.1250200000000001 
rthumb 13.6037 -16.629200000000001 
448
root 13.048155 8.4938850000000006 -3.6382409999999998 -5.2614999999999998 17.573599999999999 358.70800000000003 
lfemur -18.078399999999998 8.9779 -13.3482 
ltibia 59.358400000000003 
lfoot -11.6396 -1.40134 
ltoes -23.655799999999999 
rfemur -10.879899999999999 -12.8413 23.160799999999998 
rtibia 39.724699999999999 
rfoot -17.508099999999999 15.753500000000001 
rtoes 0.043319999999999997 
lowerback -1.8483499999999999 1.93912 7.0568799999999996 
upperback 10.590400000000001 2.0478399999999999 0.72274899999999997 
thorax 12.790900000000001 1.6932100000000001 -2.8670100000000001 
lowerneck 1.4939199999999999 -4.4123999999999999 2.04786 
upperneck 18.078399999999998 -6.2715500000000004 2.3775499999999998 
head 5.2168299999999999 -2.7233999999999998 0.15612000000000001 
lclavicle -1.4312499999999999e-014 -3.2203100000000001e-014 
lhumerus -33.482500000000002 23.862200000000001 78.996099999999998 
lradius 12.1363 
lwrist -54.973599999999998 
lhand -5.8668500000000003 -5.4128100000000003 
lfingers 7.1250200000000001 
lthumb 19.9604 23.582100000000001 
rclavicle -1.4312499999999999e-014 -3.2203100000000001e-014 
rhumerus -22.7407 -10.792299999999999 -90.499399999999994 
rradius 53.698399999999999 
rwrist -1.8751599999999999 
rhand -12.6106 13.0001 
rfingers 7.1250200000000001 
rthumb 13.4686 -16.5444 
